<?xml version="1.0" encoding="UTF-8" standalone="no"?>
<svg xmlns="http://www.w3.org/2000/svg" width="312" height="384">
	<g id="astropack">
		<path style="fill:#ffffff" d="M 0,192 0,0 l 156,0 156,0 0,192 0,192 -156,0 -156,0 0,-192 z" id="path3362"/>
		<path style="fill:#fccda5" d="M 0,192 0,0 l 156,0 156,0 0,192 0,192 -156,0 -156,0 0,-192 z m 303,175.6158 c 0,-3.26779 -8.43455,-17.81797 -14.30243,-24.67267 C 272.21569,323.68942 241.84701,298.43357 219,284.97973 c -19.21178,-11.31318 -49.18974,-23.536 -62.69029,-25.56054 l -4.61426,-0.69195 0.66096,3.30483 c 0.36354,1.81766 2.96353,8.29153 5.77776,14.38638 5.08771,11.01858 7.43544,20.27142 4.93173,19.43685 -1.66015,-0.55338 -3.43511,-3.80465 -7.56584,-13.85872 -1.92151,-4.67688 -5.40759,-11.85316 -7.74685,-15.94729 -3.59644,-6.29441 -5.0021,-7.81438 -9.10295,-9.84323 -2.69357,-1.33261 -6.89272,-2.46753 -9.44491,-2.5527 -3.96883,-0.13246 -4.77106,0.1874 -5.88552,2.34664 -0.70969,1.375 -1.29698,5.56708 -1.30509,9.31574 -0.016,7.38101 -1.16073,10.68426 -3.70271,10.68426 -1.42984,0 -1.54485,-1.27156 -0.99083,-10.95458 C 118.09244,251.56599 117.73566,251 108.46753,251 c -5.18509,0 -6.75516,0.39236 -8.32867,2.08133 -1.066484,1.14473 -4.309543,8.68223 -7.206802,16.75 -10.340346,28.79394 -14.787207,32.18358 -6.409728,4.88584 2.568521,-8.36945 5.301755,-16.91378 6.073854,-18.98741 C 93.368283,253.65613 94,251.44939 94,250.82588 c 0,-1.5086 -31.878837,-0.44569 -49.110257,1.63744 -12.786282,1.54575 -31.78136,5.09567 -32.821069,6.13381 -0.722198,0.72111 -1.363308,107.19268 -0.656543,109.03448 C 12.20367,369.69433 303,369.67855 303,367.6158 Z M 105.98119,232 c 1.1644,-4.675 2.34147,-9.4 2.6157,-10.5 0.38701,-1.55238 0.2898,-1.66428 -0.43437,-0.5 -0.51314,0.825 -1.25889,3.075 -1.65722,5 -0.39832,1.925 -2.00784,6.15819 -3.5767,9.40708 -1.56885,3.2489 -2.59135,6.32958 -2.27221,6.84597 1.20805,1.95465 3.276,-2.02726 5.3248,-10.25305 z m 16.02569,-17 c 1.05751,0 2.42504,0.93854 3.03896,2.08565 0.61391,1.1471 1.33036,1.87148 1.59212,1.60973 0.26175,-0.26176 -1.14202,-4.6653 -3.1195,-9.78564 -2.94362,-7.622 -3.4099,-9.77201 -2.57204,-11.85973 0.56286,-1.40251 0.93914,-3.49975 0.83618,-4.66055 -0.18388,-2.07315 -0.25467,-2.08032 -3.99651,-0.40505 -5.04317,2.25789 -5.62431,2.96699 -3.43548,4.19193 1.82338,1.02041 1.80921,4.05413 -0.0482,10.31582 -0.51361,1.7315 -0.38153,1.81836 1.00951,0.66391 2.95673,-2.45387 3.68397,-0.27493 3.88929,11.65295 0.15984,9.2857 0.27137,10.09651 0.54207,3.94098 0.30174,-6.86138 0.56128,-7.75 2.26357,-7.75 z M 63.548056,204.09293 C 62.053347,201.20248 60,199.91321 60,201.86514 c 0,1.233 4.135594,6.3326 4.687741,5.78045 0.252852,-0.25285 -0.260006,-1.85155 -1.139685,-3.55266 z m 23.468124,-3.16996 c 3.801442,-1.75219 7.693482,-4.04966 8.648978,-5.10547 1.656623,-1.83055 1.623482,-2.12839 -0.713946,-6.41644 -1.348167,-2.47323 -4.420532,-6.7503 -6.827478,-9.50461 l -4.376267,-5.00784 -2.47257,2.3057 c -1.359914,1.26813 -4.784824,5.23069 -7.610911,8.80569 -2.826088,3.575 -5.706611,7.09464 -6.401163,7.82143 -2.160861,2.26114 -1.40472,4.8468 2.39232,8.18064 4.410276,3.87228 6.963152,3.7136 17.361037,-1.0791 z m 33.24164,-13.99072 c 9.98019,-4.49887 15.77587,-8.13158 15.7253,-9.85656 -0.009,-0.31663 -2.72404,-3.95069 -6.0328,-8.07569 -3.30875,-4.125 -8.26664,-12.1125 -11.01753,-17.75 -2.75088,-5.6375 -5.59262,-10.25 -6.31498,-10.25 -1.89443,0 -11.79099,10.66864 -15.999717,17.24794 -1.977173,3.09082 -4.050087,5.90101 -4.606476,6.24488 -1.749871,1.08148 -1.085469,6.8066 1.412526,12.17166 C 96.137015,182.49104 104.75577,192 107.32398,192 c 0.93042,0 6.75065,-2.28049 12.93384,-5.06775 z M 103.75,181.42803 C 100.91925,179.89232 99.980562,177 102.31291,177 c 0.7221,0 2.60629,1.35 4.18709,3 3.14669,3.28444 1.88223,3.94105 -2.75,1.42803 z M 167,165.44607 c 18.84638,-7.64513 44.6281,-18.97237 47.56995,-20.89995 2.62524,-1.72012 3.82337,-6.92965 2.27182,-9.87798 -0.62753,-1.19248 -5.05236,-6.2731 -9.83295,-11.29028 -9.10303,-9.55352 -15.91441,-20.91866 -21.61701,-36.069056 -5.55054,-14.746429 -5.15001,-21.017225 2.16195,-33.848053 7.92481,-13.906234 4.45395,-11.25939 -14.47602,11.039249 -14.83714,17.477472 -39.69734,48.2006 -46.41394,57.36001 -5.63481,7.68417 -5.97282,11.33749 -2.06602,22.33039 6.2071,17.46546 16.62219,29.74738 23.90222,28.18652 1.65,-0.35376 9.975,-3.47265 18.5,-6.93085 z m 64.70317,-45.25985 c 1.53826,-1.10916 3.66459,-4.16608 4.72518,-6.79317 l 1.92836,-4.77651 -3.06335,-5.55827 C 233.22407,99.303642 232.00352,95.390771 231.53203,91 230.17166,78.331673 224.43648,64.876752 218.56094,60.569408 214.18498,57.361405 205.67235,54 201.92415,54 c -3.95169,0 -11.72765,3.764315 -13.10945,6.346244 -0.59599,1.113608 -0.85621,6.548943 -0.62393,13.032066 0.36365,10.149871 0.71566,11.842765 4.02847,19.373815 4.545,10.332215 11.88023,21.459225 16.43847,24.935965 6.96891,5.31544 17.54784,6.4622 23.04546,2.49813 z m 4.17722,-65.664371 c -2.84945,-4.829463 -12.17597,-13.131203 -18.1572,-16.162119 -2.74879,-1.392918 -7.29851,-2.765962 -10.1105,-3.05121 -4.32544,-0.438774 -5.57204,-0.156003 -8.09586,1.836424 L 196.53365,39.5 l 8.48318,0.587216 c 10.86634,0.752182 15.61201,2.886879 25.0139,11.251757 4.1081,3.65498 7.56659,6.648931 7.68554,6.653223 0.11896,0.0043 -0.70719,-1.557364 -1.83588,-3.470347 z" id="path3360"/>
		<path style="fill:#fcbc86" d="M 0,192 0,0 l 156,0 156,0 0,192 0,192 -156,0 -156,0 0,-192 z m 302.99023,175.25 c -0.0157,-2.80982 -4.69564,-12.08595 -9.41775,-18.66691 -5.80599,-8.0915 -31.68843,-33.3724 -43.57248,-42.55979 -29.08665,-22.48649 -58.32834,-37.57148 -89.28772,-46.0611 -10.88037,-2.98359 -12.05547,-3.54521 -15.26621,-7.29624 -4.55289,-5.31903 -12.90671,-21.83297 -19.49228,-38.53261 -4.78345,-12.12981 -5.16398,-13.66316 -4.1125,-16.571 2.55933,-7.0777 0.67169,-8.88503 -5.82055,-5.57293 -4.15865,2.12158 -4.16735,2.13788 -2.50027,4.68217 2.29828,3.50762 1.23161,10.02416 -3.00012,18.32841 -1.82178,3.575 -4.9968,11.225 -7.05561,17 -4.59765,12.89645 -12.496529,33.32155 -13.147832,33.99795 -0.921231,0.95673 0.963936,-5.5329 2.815735,-9.69309 C 94.159689,253.99754 95,251.69356 95,251.18492 c 0,-3.72869 -51.913682,-0.38695 -74.301305,4.78286 -4.290718,0.99082 -8.115718,2.11565 -8.5,2.49962 -0.787753,0.7871 -1.524228,107.24189 -0.755774,109.24445 C 11.843043,368.75455 39.667277,369 157.46862,369 c 137.93837,0 145.53087,-0.0913 145.52161,-1.75 z m -142.37584,-74.5 c -2.0586,-3.23518 -4.74403,-11.73123 -4.05856,-12.84034 0.98194,-1.5888 2.5411,0.10213 5.03718,5.46288 2.47948,5.3251 3.11854,9.62746 1.43004,9.62746 -0.53732,0 -1.62122,-1.0125 -2.40866,-2.25 z M 84.889079,282.40005 c 1.436006,-4.72997 2.761019,-7.85607 2.944472,-6.94689 0.27662,1.3709 0.596614,1.43472 1.874802,0.37392 0.847688,-0.70352 -0.319933,2.42259 -2.594712,6.9469 C 84.838862,287.29829 82.820286,291 82.627918,291 c -0.192368,0 0.825154,-3.86998 2.261161,-8.59995 z m 32.714881,-7.98973 c -0.36824,-0.95961 -0.20477,-2.20951 0.36326,-2.77754 0.71037,-0.71037 1.40962,-0.65594 2.23992,0.17436 0.94286,0.94286 0.86333,1.55096 -0.36325,2.77754 -1.4272,1.4272 -1.63145,1.4113 -2.23993,-0.17436 z m -28.525013,-4.99365 c 0.04798,-1.16495 0.284941,-1.4019 0.604167,-0.60417 0.288871,0.72187 0.253344,1.58438 -0.07895,1.91667 -0.332292,0.33229 -0.568641,-0.25834 -0.52522,-1.3125 z m 4.547052,-6.12585 C 95.037902,259.55587 97.12207,254.025 98.257482,251 c 1.135413,-3.025 2.905908,-6.64189 3.934428,-8.03753 1.02852,-1.39564 3.23368,-7.47064 4.90036,-13.5 3.28509,-11.88412 6.47351,-19.85721 8.66976,-21.67994 2.69611,-2.23757 3.37233,1.23987 2.71614,13.96747 -0.43684,8.47285 -0.29959,12.25 0.44513,12.25 0.65739,0 1.0767,-2.50602 1.0767,-6.4349 0,-7.20186 1.38427,-12.06368 3.12797,-10.98601 1.57854,0.97559 16.69381,32.27979 17.47689,36.19519 l 0.64079,3.20399 -4.87282,-1.47831 c -2.68006,-0.81307 -6.56998,-1.48318 -8.64427,-1.48914 -4.14678,-0.0119 -5.06897,1.2116 -6.21021,8.23918 -0.3793,2.33566 -1.15762,3.75 -2.06366,3.75 C 118.3304,265 118,263.51803 118,258.47525 c 0,-6.04983 -0.18304,-6.59434 -2.51479,-7.48087 -3.21038,-1.22059 -15.973751,-0.81777 -16.020645,0.50562 -0.01949,0.55 -0.509745,1.9 -1.089457,3 -0.579711,1.1 -2.084708,4.82206 -3.344436,8.27125 -1.259728,3.44918 -2.66872,6.50505 -3.131092,6.79081 -0.462373,0.28577 0.314516,-2.5363 1.726419,-6.27124 z M 66.210017,206.75 c -1.074206,-1.7875 -2.252505,-4.51947 -2.618441,-6.07104 -0.813018,-3.4472 -2.972586,-3.03052 -3.408922,0.65774 -0.226298,1.91284 0.540624,3.54042 2.673076,5.67288 4.018923,4.01892 5.840745,3.87793 3.354287,-0.25958 z m 16.77324,-3.7431 C 92.332613,199.15154 97,196.23771 97,194.2563 97,190.53232 86.096913,175 83.482822,175 c -0.760803,0 -3.093176,2.09903 -5.18305,4.66451 -2.089875,2.56547 -6.107445,7.43729 -8.927934,10.82626 -4.588269,5.51305 -5.00291,6.3958 -3.938455,8.38475 1.034929,1.93379 7.955423,7.00544 9.679079,7.09327 0.336855,0.0172 3.878712,-1.31568 7.870795,-2.96189 z M 124.45564,185.53662 C 131.72353,182.2499 136,179.29693 136,177.56504 c 0,-0.71432 -2.47716,-4.39618 -5.50479,-8.1819 -3.02764,-3.78573 -7.88615,-11.60602 -10.79669,-17.37844 -3.03739,-6.02398 -5.99242,-10.6302 -6.93619,-10.81196 -0.91113,-0.17546 -3.51844,1.60597 -5.84751,3.9953 C 101.09089,151.16263 90,166.12337 90,168.00479 c 0,3.79801 6.935906,15.7056 11.76878,20.20467 l 5.05886,4.70947 5.83618,-2.34451 c 3.2099,-1.28949 8.51622,-3.55649 11.79182,-5.0378 z M 104.22251,181.4433 C 101.94481,179.84793 101.25879,178 102.94424,178 c 0.51933,0 2.20683,1.11078 3.75,2.4684 3.19469,2.81057 1.24625,3.57907 -2.47173,0.9749 z m 60.09304,-14.50687 C 172.667,163.60147 188.275,156.945 199,152.14429 l 19.5,-8.72858 -0.30821,-3.16483 c -0.16951,-1.74066 0.14409,-4.00995 0.69689,-5.04288 0.84687,-1.58238 0.25879,-2.44717 -3.73552,-5.49328 -10.18889,-7.77015 -16.65132,-15.74437 -22.96233,-28.33404 -11.34745,-22.636743 -12.63212,-30.842992 -6.74987,-43.117186 4.1035,-8.562563 10.39696,-15.724869 15.21433,-17.314744 7.53709,-2.487465 19.84928,1.701543 28.33761,9.641378 5.53718,5.179383 11.14101,13.729555 14.6386,22.335195 1.23728,3.044276 2.69095,5.682161 3.23037,5.861966 1.44149,0.480498 0.30702,-3.315286 -3.47521,-11.627565 -8.70258,-19.125849 -23.61141,-32.080164 -36.98662,-32.137762 -8.10787,-0.03492 -12.49217,3.867844 -36.07012,32.108382 -16.06785,19.245292 -45.14691,55.545916 -47.52713,59.330126 -2.46518,3.91927 -1.89637,8.75296 2.32557,19.76262 C 130.68853,160.7225 140.37894,173 146.26289,173 c 1.57752,0 9.70121,-2.72861 18.05266,-6.06357 z m 67.06272,-30.871 c 8.03014,-4.601 12.96357,-9.38406 15.93203,-15.44644 l 2.73761,-5.59093 -2.41805,-4.77179 c -1.32993,-2.62449 -3.17591,-8.8183 -4.10218,-13.764032 -3.26341,-17.424594 -11.53306,-35.650618 -19.40078,-42.758625 -4.83029,-4.363874 -9.07748,-5.789899 -17.98452,-6.038425 -6.52674,-0.182111 -7.20806,0.0058 -10.16936,2.804812 -1.74567,1.65 -4.47452,5.25 -6.0641,8 -2.44211,4.22489 -2.88782,6.085155 -2.87509,12 0.008,3.85 0.48028,9.025 1.04887,11.5 1.48382,6.458851 9.13141,22.1447 14.38824,29.51147 6.21287,8.70656 9.18035,10.31778 21.0757,11.44319 6.67705,0.63171 10.26433,1.43282 11.35667,2.53618 1.46455,1.47931 1.19909,1.98972 -3.20752,6.16719 -3.69295,3.50093 -5.36994,4.44625 -7.25,4.08686 -2.67628,-0.51161 -3.10511,0.19579 -1.24579,2.05511 1.70751,1.70751 2.44307,1.5515 8.17827,-1.73457 z M 235.50362,115.5 c 2.81714,-6.57517 2.82433,-7.26468 0.12375,-11.87287 -1.79181,-3.05749 -2.87084,-6.848936 -3.49355,-12.275494 -0.49555,-4.3184 -1.8427,-10.299814 -2.99368,-13.292032 -1.15097,-2.992217 -1.93397,-5.599104 -1.74,-5.79308 0.54147,-0.54147 5.04296,11.447941 7.03359,18.733476 0.9768,3.575 2.51917,9.2 3.42751,12.5 1.61469,5.86621 1.60218,6.0975 -0.56092,10.37272 -2.90004,5.73174 -3.97076,6.70148 -1.7967,1.62728 z M 238,116.07332 C 238,114.64223 238.64223,114 240.07332,114 c 1.4311,0 1.96962,0.53852 1.73852,1.73852 C 241.30983,118.34525 238,118.63597 238,116.07332 Z M 219.92431,61.25 217.5,58.5 l 2.75,2.424314 c 1.5125,1.333373 2.75,2.570873 2.75,2.75 0,0.784274 -0.8098,0.145975 -3.07569,-2.424314 z m 30.18522,28.711837 c -0.84072,-2.106027 -0.99192,-1.714873 -1.04614,2.706376 -0.0851,6.93831 1.33116,10.447697 1.73275,4.293624 0.16288,-2.495989 -0.1461,-5.645989 -0.68661,-7 z" id="path3358"/>
		<path style="fill:#fca75f" d="M 0,192 0,0 l 156,0 156,0 0,192 0,192 -156,0 -156,0 0,-192 z m 303.45189,174.75 c -2.20744,-7.27316 -9.29479,-18.35853 -17.27483,-27.01966 -36.98013,-40.13641 -78.25115,-66.5843 -123.74594,-79.30066 -11.41588,-3.19088 -13.31353,-4.03506 -16.19467,-7.20432 -3.97842,-4.37628 -13.10141,-22.2304 -20.24239,-39.61528 -4.80642,-11.70134 -5.18858,-13.18325 -4.14435,-16.071 2.55055,-7.05342 0.65541,-8.85775 -5.82897,-5.54966 -4.11856,2.10113 -4.15197,2.16135 -2.55293,4.60179 1.40111,2.13837 1.45949,3.28988 0.43165,8.51427 -0.65372,3.32281 -2.14482,7.47091 -3.31356,9.218 -1.87414,2.80157 -10.54218,25.12332 -10.61307,27.33056 -0.01494,0.46528 -2.054314,5.79596 -4.531936,11.84596 -2.477622,6.05 -4.222983,9.50719 -3.878581,7.68264 0.344403,-1.82455 1.256002,-4.52455 2.025776,-6 2.88165,-5.52336 2.20367,-6.18365 -6.338089,-6.17275 -18.804599,0.024 -52.378716,3.39959 -66.216158,6.65748 -3.593613,0.84608 -7.208842,1.6474 -8.033842,1.7807 -1.308265,0.21138 -1.53321,7.19655 -1.759814,54.64714 -0.142898,29.92264 -0.04452,54.96729 0.218615,55.65479 0.379725,0.99211 30.620013,1.25 146.577199,1.25 l 146.09878,0 -0.68289,-2.25 z M 159.45447,289.68152 c -1.42738,-3.11782 -2.45107,-6.65581 -2.27486,-7.8622 0.29943,-2.04997 0.42931,-2.08397 1.98558,-0.51976 2.519,2.53184 5.30488,11.63037 3.96986,12.96539 -0.78044,0.78044 -1.81438,-0.50711 -3.68058,-4.58343 z m -74.633958,-6.73866 c 1.452768,-4.43142 2.806227,-7.56264 3.007688,-6.95826 0.253337,0.76001 0.837349,0.70793 1.893848,-0.16888 0.840155,-0.69727 -0.333628,2.43395 -2.608407,6.95826 C 84.838862,287.29829 82.798002,291 82.578397,291 c -0.219605,0 0.789347,-3.62571 2.242115,-8.05714 z m 32.833088,-8.40317 c -0.37251,-0.97076 -0.0108,-1.84912 0.90639,-2.20108 2.27647,-0.87357 3.04007,0.4899 1.26723,2.26274 -1.40498,1.40498 -1.61308,1.39907 -2.17362,-0.0617 z M 92.030626,267.5 c 0,-0.55 0.436218,-1.675 0.969374,-2.5 0.533156,-0.825 0.969374,-1.05 0.969374,-0.5 0,0.55 -0.436218,1.675 -0.969374,2.5 -0.533156,0.825 -0.969374,1.05 -0.969374,0.5 z m 26.596514,-4.02927 c -0.32034,-0.83479 -0.31757,-3.45014 0.006,-5.8119 0.90194,-6.58033 -0.88675,-7.80707 -10.85904,-7.44749 l -8.005579,0.28866 -2.557977,6.24302 c -1.406887,3.43366 -2.714937,6.08606 -2.906777,5.89422 -0.674968,-0.67497 5.990803,-17.16141 7.737533,-19.13724 1.57919,-1.78631 6.17983,-15.19682 8.91962,-26 1.17276,-4.62425 4.54389,-10.5 6.02424,-10.5 1.20778,0 1.20914,0.0216 1.02201,16.25 -0.16558,14.36011 1.41833,17.43752 2.23527,4.34294 0.54948,-8.80743 1.20815,-11.05044 2.93211,-9.98497 1.10636,0.68377 14.96867,28.49592 16.74992,33.6056 l 1.06255,3.04805 -4.24358,-0.64932 c -6.65481,-1.01825 -15.3599,-1.68395 -14.12501,-1.08016 0.80866,0.39538 0.75155,1.57496 -0.2061,4.25738 -0.72858,2.04077 -1.34444,4.47142 -1.36858,5.40146 -0.0595,2.29216 -1.69576,3.15861 -2.41675,1.27975 z M 67.801246,209.25 c -0.200981,-0.4125 -0.969512,-2.1 -1.707845,-3.75 -2.948123,-6.58835 -3.461951,-7.5 -4.227197,-7.5 -0.43771,0 -1.293652,0.93018 -1.902092,2.06706 -1.173133,2.19202 0.590815,6.04486 3.960749,8.65114 1.737633,1.34386 4.453588,1.71647 3.876385,0.5318 z M 88,200.76681 c 6.491715,-3.2587 8.576381,-4.80514 8.823279,-6.54526 0.356798,-2.51468 -9.736786,-18.59065 -12.286883,-19.56921 -0.966637,-0.37093 -3.149881,1.38582 -6.260329,5.0374 -2.626837,3.08384 -6.904249,7.93634 -9.50536,10.78335 -4.540309,4.96952 -4.6814,5.30325 -3.530763,8.35164 0.659192,1.7464 1.662374,3.18528 2.229294,3.19751 0.566919,0.0122 2.155762,0.92228 3.530762,2.02233 3.306915,2.64566 6.380342,2.05307 17,-3.27776 z m 36.96644,-15.59244 c 9.55106,-4.71616 11.8964,-6.75299 10.69533,-9.28845 -0.36109,-0.76225 -3.14366,-4.53592 -6.18349,-8.38592 -3.03983,-3.85 -7.64478,-11.3875 -10.23322,-16.75 -5.54985,-11.49769 -6.53953,-11.88779 -13.01462,-5.13001 C 99.836857,152.2927 90,166.02887 90,168.28414 c 0,5.27487 8.556665,18.51227 14.76823,22.84687 2.8111,1.96166 6.16582,0.97232 20.19821,-5.95664 z M 103.40499,179.75 101.5,177.5 l 2.25,1.90499 c 2.11444,1.79022 2.70524,2.59501 1.90499,2.59501 -0.18976,0 -1.20226,-1.0125 -2.25,-2.25 z m 49.41457,-8.18863 c 10.61005,-3.60871 50.89312,-20.94186 64.68044,-27.83094 19.70393,-9.84541 26.89112,-15.54637 30.91741,-24.52398 l 1.9174,-4.27534 -2.59966,-5.71555 C 246.30534,106.072 244.15318,99.028382 242.95257,93.563071 237.72228,69.754109 227.81823,52.489179 217.5,49.19365 c -2.2,-0.702655 -7.27106,-1.549277 -11.26903,-1.88138 l -7.26903,-0.603825 -3.96277,4.292449 C 188.86926,57.640787 187,62.363373 187,71.210389 c 0,11.82869 4.89178,25.355235 14.05491,38.864071 7.31528,10.78461 9.82707,12.16636 24.40169,13.42352 6.75613,0.58276 9.5434,1.67986 9.5434,3.75639 0,2.06231 -7.15561,7.74563 -9.75218,7.74563 -3.20126,0 -15.20457,-8.98394 -22.13535,-16.56732 C 194.18696,108.66675 182,81.639519 182,71.611196 c 0,-8.924507 7.66453,-23.428477 15.01758,-28.418515 3.01305,-2.04476 4.42591,-2.315191 10.48242,-2.006406 14.38789,0.733553 25.03832,9.519992 33.78874,27.875192 5.03203,10.555366 6.72479,12.87718 6.69905,9.188533 -0.0205,-2.93961 -6.32513,-16.393723 -10.69558,-22.824456 C 230.89022,46.005565 219.83907,37.380115 211.18701,35.050357 201.31752,32.392779 195.38976,36.969085 171.09744,66 c -15.15356,18.109487 -44.07437,54.11897 -47.91108,59.65437 -2.84245,4.10094 -2.75696,7.40891 0.43889,16.98186 4.59216,13.75552 10.50553,23.27277 17.69684,28.48213 2.18789,1.5849 4.05665,2.88164 4.1528,2.88164 0.0961,0 3.40125,-1.09738 7.34467,-2.43863 z m 85.6566,-54.59994 c -1.00797,-1.63093 1.23102,-3.65425 2.56622,-2.31905 0.72318,0.72318 0.59733,1.41175 -0.41097,2.24856 -1.07422,0.89152 -1.63646,0.90991 -2.15525,0.0705 z M 237.64504,110 c 0.79139,-4.31279 1.35998,-5.12629 1.33965,-1.91667 -0.008,1.32917 -0.4578,3.09167 -0.99861,3.91667 -0.69179,1.05532 -0.79289,0.46242 -0.34104,-2 z m -2.89465,-8.25 c -0.93743,-1.7875 -2.13426,-6.843002 -2.65962,-11.234448 -0.99994,-8.358389 -0.70622,-11.492462 0.45619,-4.867736 0.37176,2.118701 1.26744,5.877184 1.9904,8.352184 1.35035,4.622824 2.60552,11 2.16504,11 -0.13617,0 -1.01458,-1.4625 -1.95201,-3.25 z m 16.75628,-6.107845 c -0.8884,-7.013693 -1.4735,-8.780691 -2.66389,-8.044987 -0.63272,0.39104 -0.75072,2.931412 -0.31422,6.76452 0.78587,6.901092 1.17249,7.941112 2.61954,7.046782 0.61012,-0.37708 0.75207,-2.659766 0.35857,-5.766315 z" id="path3356"/>
		<path style="fill:#ff8416" d="M 0,192 0,0 l 156,0 156,0 0,192 0,192 -156,0 -156,0 0,-192 z m 304,176.10165 c 0,-1.04409 -2.10662,-6.10659 -4.68137,-11.25 -4.37755,-8.74473 -5.82157,-10.48917 -22.25,-26.87881 -25.35521,-25.29537 -46.2511,-40.64075 -73.56863,-54.02682 -16.10924,-7.89381 -32.67932,-14.12069 -46.44939,-17.45524 -5.65269,-1.36886 -8.10982,-2.52703 -10.18767,-4.80198 -3.62529,-3.96918 -13.45007,-23.13276 -19.82185,-38.66322 -4.94362,-12.04948 -5.09522,-12.70523 -4.45032,-19.25 0.77276,-7.84227 0.62718,-7.93319 -6.73139,-4.20432 l -5.07413,2.57125 2.17617,2.31642 c 1.99074,2.11905 2.07565,2.68811 0.99655,6.67874 -0.64879,2.39928 -1.30169,5.26233 -1.45089,6.36233 -0.38115,2.80992 -1.58542,5.5 -2.46219,5.5 -1.19877,0 -8.27556,18.37337 -10.977214,28.5 -0.586933,2.2 -1.404768,4.45 -1.817413,5 -0.448005,0.59713 -8.606225,1.0625 -20.250263,1.15514 -20.887354,0.16618 -39.266927,1.97695 -55.75,5.49254 l -10.25,2.18617 0,55.66641 c 0,30.61652 0.3,55.96641 0.666667,56.33307 C 12.033333,369.7 77.958333,370 158.16667,370 300.73038,370 304,369.95744 304,368.10165 Z M 159.12314,288.06462 C 156.74755,282.5424 156.51301,281 158.04889,281 c 1.21346,0 4.89663,7.65905 4.92915,10.25 0.0406,3.238 -1.71611,1.78637 -3.8549,-3.18538 z m -75.599865,-0.50925 c 1.01802,-4.89398 3.717926,-10.30103 4.185718,-8.38265 0.22434,0.92 -0.76349,3.845 -2.195177,6.5 -2.043158,3.78895 -2.471315,4.1939 -1.990541,1.88265 z M 118,273.55902 C 118,272.70156 118.45,272 119,272 c 0.55,0 1,0.42344 1,0.94098 0,0.51754 -0.45,1.2191 -1,1.55902 -0.55,0.33992 -1,-0.0835 -1,-0.94098 z m 1.32882,-13.65265 c 0.35413,-1.3235 0.65002,-3.60174 0.65753,-5.06275 0.0109,-2.11186 0.402,-2.55483 1.90815,-2.16096 1.71857,0.44942 1.76557,0.74254 0.50616,3.15638 -0.76359,1.46353 -1.39111,3.1969 -1.3945,3.85194 -0.003,0.65504 -0.52705,1.51291 -1.16368,1.90637 -0.81158,0.50158 -0.96509,-0.004 -0.51366,-1.69098 z M 131.5,252.43713 c -3.85,-0.75621 -8.08024,-1.6395 -9.40054,-1.96287 l -2.40053,-0.58793 0.58016,-14.19316 C 120.8401,221.9685 121.43279,218 122.92154,218 123.99074,218 140,250.7935 140,252.98366 c 0,1.18459 0.46591,1.21455 -8.5,-0.54653 z m -32.500352,-3.55227 c 1.94e-4,-0.33833 0.912325,-1.77453 2.026962,-3.19155 2.81639,-3.58047 4.51879,-7.95394 8.55619,-21.98098 C 112.69187,212.91056 114.99225,208 116.94332,208 c 0.84951,0 0.74006,39.64979 -0.1118,40.50174 -0.84696,0.84706 -17.832345,1.21199 -17.831872,0.38312 z M 67.968197,209.25 c -0.01749,-0.9625 -0.692492,-2.62351 -1.5,-3.69113 -0.807509,-1.06762 -1.482509,-2.64262 -1.5,-3.5 -0.01749,-0.85738 -0.720315,-2.45887 -1.56183,-3.55887 -1.511897,-1.9763 -1.547066,-1.977 -2.968196,-0.0589 -2.245359,3.03061 -1.721697,5.47534 1.961829,9.15887 3.759641,3.75964 5.616536,4.30989 5.568197,1.65 z m 16.256381,-6.19972 c 4.05609,-1.68855 8.887786,-4.33327 10.737102,-5.87715 l 3.362392,-2.80705 -2.710393,-4.97988 c -3.806854,-6.99445 -9.886952,-14.81515 -11.805007,-15.18453 -0.95122,-0.18319 -3.201233,1.63228 -5.463009,4.40793 -2.115115,2.59568 -6.248617,7.60452 -9.185561,11.13077 -4.926191,5.91463 -5.251855,6.61853 -4.203484,9.08549 1.212048,2.85212 8.757756,8.23578 10.718316,7.64723 0.646214,-0.19399 4.493553,-1.73425 8.549644,-3.42281 z m 37.144592,-15.63552 c 10.74899,-4.84484 15.64021,-7.89376 15.61395,-9.73285 -0.009,-0.65005 -2.71341,-4.54963 -6.00918,-8.66573 -3.29577,-4.1161 -8.35068,-12.19197 -11.23312,-17.94637 -2.88245,-5.75439 -5.78083,-10.62918 -6.44083,-10.83285 -2.43902,-0.75264 -11.88767,9.40122 -23.21016,24.9425 -1.239164,1.70088 -1.128099,2.6259 0.915887,7.62807 2.937154,7.18799 6.848137,12.97896 11.558683,17.11487 4.39236,3.85655 4.80782,3.80115 18.80477,-2.50764 z M 103.40499,179.75 101.5,177.5 l 2.25,1.90499 c 2.11444,1.79022 2.70524,2.59501 1.90499,2.59501 -0.18976,0 -1.20226,-1.0125 -2.25,-2.25 z m 56.37943,-10.37064 c 17.9879,-7.09446 49.50745,-20.97509 61.43237,-27.0537 18.18717,-9.27073 25.89309,-16.37415 29.0368,-26.76649 2.10668,-6.96415 1.52714,-25.849679 -1.07264,-34.954205 C 243.07983,59.23859 232.3106,44.814871 216.59028,36.95482 206.11335,31.71643 199.13273,33.701857 188.89026,44.833246 173.44524,61.61871 125.33219,121.01988 121.81491,127.6456 l -2.20071,4.1456 2.73318,8.29584 c 4.46473,13.55149 8.40395,20.7588 15.09266,27.614 3.93254,4.03042 6.95322,6.29896 8.3874,6.29896 1.23277,0 7.51341,-2.07929 13.95698,-4.62064 z m 58.53199,-38.3269 c -6.49074,-4.33435 -9.89473,-7.60806 -8.63155,-8.30119 1.16011,-0.63659 21.56193,1.65332 23.06514,2.58883 0.6875,0.42787 1.25,1.37976 1.25,2.11532 0,1.655 -6.57362,7.54458 -8.42084,7.54458 -0.74319,0 -4.01143,-1.77639 -7.26275,-3.94754 z m -17.77536,-16.16532 c -3.98114,-4.70254 -15.14162,-28.044453 -17.10481,-35.77434 -1.00361,-3.951651 -1.3831,-7.981491 -0.9952,-10.568208 1.40351,-9.35928 9.96741,-22.635971 16.92007,-26.231329 3.93123,-2.032919 12.48162,-1.29689 19.37287,1.667643 13.64074,5.868088 26.57069,27.383261 29.15847,48.519094 1.34592,10.99294 1.39975,15.5 0.1851,15.5 -1.12222,0 -2.37465,-3.94885 -4.59885,-14.5 C 240.07031,77.331349 231.63905,59.402315 224.49379,53.128691 220.16973,49.332116 212.52488,47 204.40349,47 c -6.1394,0 -6.29365,0.06831 -10.21624,4.524616 -5.08917,5.7816 -6.98145,9.828661 -7.74738,16.569494 -1.20221,10.580348 4.22448,27.063094 13.70314,41.62124 4.54322,6.97786 4.80484,10.37712 0.39804,5.17179 z m 32.55613,-21.539422 c -0.73094,-3.383755 -1.08736,-6.758755 -0.79203,-7.5 0.29532,-0.741245 0.57248,-0.177368 0.6159,1.253059 0.0434,1.430427 0.56587,3.997554 1.16099,5.704727 0.59513,1.707173 0.91602,3.911823 0.71309,4.899223 -0.20292,0.9874 -0.967,-0.973254 -1.69795,-4.357009 z" id="path3354"/>
	</g>
</svg>
