/* XPM */
static char * planetarium_16_xpm[] = {
"16 16 135 2",
"  	c None",
". 	c #484B4C",
"+ 	c #414141",
"@ 	c #272626",
"# 	c #111110",
"$ 	c #040404",
"% 	c #000000",
"& 	c #243037",
"* 	c #4D5458",
"= 	c #717171",
"- 	c #575858",
"; 	c #3C3A38",
"> 	c #221F1C",
", 	c #10100E",
"' 	c #050505",
") 	c #030404",
"! 	c #030303",
"~ 	c #152733",
"{ 	c #70777C",
"] 	c #3F4A52",
"^ 	c #333D44",
"/ 	c #343C41",
"( 	c #444545",
"_ 	c #262522",
": 	c #0B0E0F",
"< 	c #0B0B0B",
"[ 	c #010101",
"} 	c #8F9498",
"| 	c #5A666D",
"1 	c #4A555D",
"2 	c #38434A",
"3 	c #1C2831",
"4 	c #101A22",
"5 	c #1A1E1F",
"6 	c #1E2021",
"7 	c #101111",
"8 	c #010000",
"9 	c #3A4A55",
"0 	c #304350",
"a 	c #1E3443",
"b 	c #2B3F4C",
"c 	c #3C4A53",
"d 	c #3D464D",
"e 	c #32393E",
"f 	c #161E25",
"g 	c #191D1E",
"h 	c #0D0F10",
"i 	c #010102",
"j 	c #4A5964",
"k 	c #233B4A",
"l 	c #1E3B4D",
"m 	c #2C4759",
"n 	c #253C4B",
"o 	c #37434C",
"p 	c #40474A",
"q 	c #383C3F",
"r 	c #232629",
"s 	c #1A1B1C",
"t 	c #070707",
"u 	c #000101",
"v 	c #6D787F",
"w 	c #677883",
"x 	c #25475C",
"y 	c #315268",
"z 	c #3C5362",
"A 	c #576065",
"B 	c #565A5B",
"C 	c #4C4F50",
"D 	c #383A3A",
"E 	c #242424",
"F 	c #69747C",
"G 	c #9EA5AB",
"H 	c #8E9CA6",
"I 	c #405F72",
"J 	c #5D6C76",
"K 	c #576166",
"L 	c #4A4F53",
"M 	c #535455",
"N 	c #414242",
"O 	c #161614",
"P 	c #060605",
"Q 	c #57656F",
"R 	c #76828A",
"S 	c #7A868F",
"T 	c #2B495B",
"U 	c #616E76",
"V 	c #2C3B45",
"W 	c #4E5356",
"X 	c #5B5C5C",
"Y 	c #454645",
"Z 	c #161513",
"` 	c #000001",
" .	c #020203",
"..	c #7B848B",
"+.	c #8F979C",
"@.	c #889094",
"#.	c #737D84",
"$.	c #767B7E",
"%.	c #4F575D",
"&.	c #363E43",
"*.	c #505153",
"=.	c #3B3B3B",
"-.	c #1D1A18",
";.	c #030304",
">.	c #B6B9BB",
",.	c #989EA2",
"'.	c #9FA1A3",
").	c #979899",
"!.	c #707273",
"~.	c #575A5B",
"{.	c #3E4142",
"].	c #1C1C1B",
"^.	c #111111",
"/.	c #060607",
"(.	c #040505",
"_.	c #969C9E",
":.	c #A4A7A7",
"<.	c #ABABAB",
"[.	c #979798",
"}.	c #777979",
"|.	c #515455",
"1.	c #3F4040",
"2.	c #121414",
"3.	c #080808",
"4.	c #A6A6A6",
"5.	c #989898",
"6.	c #848484",
"7.	c #555656",
"8.	c #343636",
"9.	c #141718",
"0.	c #060606",
"a.	c #6C6C6C",
"b.	c #595959",
"c.	c #434343",
"d.	c #262626",
"                                ",
"          . + @ # $ %           ",
"      & * = - ; > , ' ) !       ",
"    ~ { ] ^ / ( _ : < ! [ %     ",
"    } | 1 2 3 4 5 6 7 8 % %     ",
"  9 0 a b c d e f g h i [ % %   ",
"  j k l m n o p q r s t u % %   ",
"  v w x y z A B C D E < % % %   ",
"  F G H I J K L M N O P % % %   ",
"  Q R S T U V W X Y Z [ `  .%   ",
"  ..+.@.#.$.%.&.*.=.-. .;.i %   ",
"    >.,.'.).!.~.{.].^./.(.%     ",
"    _.:.<.[.}.|.1.2.3.% % %     ",
"      4.5.6.= 7.8.9.0.% %       ",
"          a.b.c.d.< %           ",
"                                "};
