/* XPM */
static char * planetarium_xpm[] = {
"32 32 233 2",
"  	c None",
". 	c #010204",
"+ 	c #030404",
"@ 	c #090A09",
"# 	c #111111",
"$ 	c #7B858B",
"% 	c #060708",
"& 	c #050505",
"* 	c #AAABAB",
"= 	c #1A1A19",
"- 	c #949494",
"; 	c #000000",
"> 	c #959A9D",
", 	c #0D0E0D",
"' 	c #595959",
") 	c #414142",
"! 	c #4D4F50",
"~ 	c #A5A5A5",
"{ 	c #303C44",
"] 	c #3A5363",
"^ 	c #060A0B",
"/ 	c #0B0C08",
"( 	c #454A4D",
"_ 	c #272827",
": 	c #5B5C5D",
"< 	c #151412",
"[ 	c #ADB1B2",
"} 	c #3E3E3E",
"| 	c #35434D",
"1 	c #2D414E",
"2 	c #818282",
"3 	c #1D1C19",
"4 	c #212122",
"5 	c #505151",
"6 	c #0B1113",
"7 	c #15212A",
"8 	c #100E0D",
"9 	c #182E3D",
"0 	c #9AA0A4",
"a 	c #353535",
"b 	c #393C3D",
"c 	c #444C51",
"d 	c #273137",
"e 	c #757676",
"f 	c #35383A",
"g 	c #4D5153",
"h 	c #2A2D2E",
"i 	c #414445",
"j 	c #2C3133",
"k 	c #151515",
"l 	c #254356",
"m 	c #4D5255",
"n 	c #676767",
"o 	c #555555",
"p 	c #101920",
"q 	c #556E7D",
"r 	c #4B5D69",
"s 	c #11110E",
"t 	c #1D1E1E",
"u 	c #22445A",
"v 	c #4D4D4D",
"w 	c #213644",
"x 	c #3A4D59",
"y 	c #455560",
"z 	c #717172",
"A 	c #545758",
"B 	c #B4B6B6",
"C 	c #494949",
"D 	c #263A47",
"E 	c #253C4B",
"F 	c #697075",
"G 	c #1B303D",
"H 	c #8B8C8C",
"I 	c #616C74",
"J 	c #A8AFB3",
"K 	c #A5A8A9",
"L 	c #4A4C4C",
"M 	c #1D3546",
"N 	c #2C343A",
"O 	c #3D454A",
"P 	c #8A959C",
"Q 	c #54626C",
"R 	c #5C5D5D",
"S 	c #989EA3",
"T 	c #0E0D0A",
"U 	c #70777D",
"V 	c #2E2C29",
"W 	c #080807",
"X 	c #142B3C",
"Y 	c #3E4244",
"Z 	c #2D3941",
"` 	c #464545",
" .	c #7F898E",
"..	c #7C7D7D",
"+.	c #143043",
"@.	c #C2C3C4",
"#.	c #626364",
"$.	c #545353",
"%.	c #606F78",
"&.	c #1C1916",
"*.	c #5F6365",
"=.	c #315268",
"-.	c #848C91",
";.	c #515D64",
">.	c #2D383F",
",.	c #6C787F",
"'.	c #121516",
").	c #585E62",
"!.	c #D1D3D3",
"~.	c #17232C",
"{.	c #474C4F",
"].	c #040503",
"^.	c #1B252B",
"/.	c #343638",
"(.	c #2D2D2D",
"_.	c #25282A",
":.	c #626466",
"<.	c #8A9195",
"[.	c #758086",
"}.	c #42525D",
"|.	c #1A1E20",
"1.	c #343F47",
"2.	c #626262",
"3.	c #2B4454",
"4.	c #35586E",
"5.	c #292B2C",
"6.	c #6C6C6B",
"7.	c #474847",
"8.	c #5D6062",
"9.	c #262422",
"0.	c #354B59",
"a.	c #6D6E6E",
"b.	c #9B9B9B",
"c.	c #5C6971",
"d.	c #15252E",
"e.	c #7B7A7A",
"f.	c #A2A7A8",
"g.	c #3A454C",
"h.	c #656768",
"i.	c #2C3B47",
"j.	c #202B34",
"k.	c #42494D",
"l.	c #173549",
"m.	c #182B37",
"n.	c #221B17",
"o.	c #0B141B",
"p.	c #223039",
"q.	c #302B25",
"r.	c #445D6F",
"s.	c #313A40",
"t.	c #2A3741",
"u.	c #292A29",
"v.	c #0F1D27",
"w.	c #131C23",
"x.	c #3B3837",
"y.	c #24201C",
"z.	c #48545E",
"A.	c #C6C8C9",
"B.	c #797D7F",
"C.	c #808080",
"D.	c #2C3E4A",
"E.	c #222627",
"F.	c #434648",
"G.	c #31393F",
"H.	c #5A6164",
"I.	c #6D7172",
"J.	c #6A6D6E",
"K.	c #252D33",
"L.	c #365366",
"M.	c #2C5066",
"N.	c #1D3D53",
"O.	c #161D20",
"P.	c #73797C",
"Q.	c #797B7C",
"R.	c #172833",
"S.	c #18364A",
"T.	c #4A545A",
"U.	c #393939",
"V.	c #4D5A63",
"W.	c #E7E4E2",
"X.	c #1A2832",
"Y.	c #5C686F",
"Z.	c #484B4D",
"`.	c #2F556B",
" +	c #38596E",
".+	c #596C79",
"++	c #5A666E",
"@+	c #C0C0C0",
"#+	c #7F8B94",
"$+	c #525355",
"%+	c #535456",
"&+	c #3A4A55",
"*+	c #23323D",
"=+	c #1F4056",
"-+	c #222F38",
";+	c #2E4B5C",
">+	c #2D3D46",
",+	c #2A2823",
"'+	c #232C32",
")+	c #141815",
"!+	c #252222",
"~+	c #2A221D",
"{+	c #586771",
"]+	c #8A8E90",
"^+	c #60676C",
"/+	c #475157",
"(+	c #34393C",
"_+	c #201B19",
":+	c #CECECF",
"<+	c #212E36",
"[+	c #797E81",
"}+	c #61666A",
"|+	c #0E181E",
"1+	c #D8D7D7",
"2+	c #0A0F12",
"3+	c #6A757C",
"4+	c #82898E",
"5+	c #354653",
"6+	c #6F7174",
"7+	c #25343E",
"8+	c #7F8080",
"9+	c #495359",
"0+	c #181816",
"a+	c #4D5459",
"b+	c #676969",
"c+	c #B9B9B9",
"d+	c #50575B",
"e+	c #071017",
"f+	c #222422",
"g+	c #101719",
"h+	c #15191C",
"i+	c #6A6A6A",
"j+	c #1B1C1C",
"                                                                ",
"                                                                ",
"                      f ) U.h 4 k @ + ; ;                       ",
"                  '+R 5 L b V 9.= 8 @ + ; ; ;                   ",
"              G.s.J.h.n : F.q.~+n.s / , + ; ; ; ;               ",
"            Z 1.)...e z n A o ` V &.s T s W / W . ;             ",
"          d.p.9+Z H.I.O m ( : ' x.y.< k , + . % + . ;           ",
"        R.m.c.[ V.t.X.d.~.N ( b ,+3 2+^ ^ , ; ; ; ; ; ;         ",
"        z.-.K [.| *+{ -+j.7 ^.|+)+3 6 ^ # , ; ; ; ; ; ;         ",
"      $ A.f.;.w x F ).{ <+v.7 w.o.E.5.(.# 8 . ; ; ; ; ; ;       ",
"      U x 5+X G D | I T.a+d ~.K.p e+6 f+= . + ; ; ; ; ; ;       ",
"    G D 9 w w E 1 1 9 i.g.>.m : (+p p |.'.% . . ; ; ; ; ;       ",
"    }.D 9 X +.E 3.3.E 1 | { {.Y N /._.O.t # % + ; ; ; ; ; ;     ",
"    <.> 1 +.S.l =+l l.M | { k.( d f h _.4 < @ + + ; ; ; ; ;     ",
"    }.J %.] N.u =.r.] x D./+:.m i 5 ) j u.t 8 . ; ; ; ; ; ;     ",
"    Y.$ @.l L.M.4.=.] ++B.C.8.g %+! L } (.4 # + ; ; ; ; ; ;     ",
"    y y !.P q q `. +.+I P.Q.*.g $+' v h _ # # + ; ; ; ; ; ;     ",
"    ,.,.P !.W.J 4.q [.Q ;.c c ( Z.' ! a = ].].. ; ; . ; ; ;     ",
"    y S r r @+#+u u %.0.G 7+c {.! o v } &./ + ; ; ; . . ; ;     ",
"    &+0 c.M *  .;+] I U >+1.O 6.#.' C } !+T + ; ; ; . & ; ;     ",
"    Q $ 0 {+-.$ 0.r ]+F ^+{ 7 #.2.o 7.b _+8 + ; + ; . . ; ;     ",
"      $ :+0  .> [ ~ [+F }+d+d ^.' C /._ 9.= & + % . . ; ;       ",
"      <.[ 1+B 3+4+* ~ 2 6+*.:.g i ) |.3 = < % @ @ ; ; ; ;       ",
"        S J @.[ > K ~ H 8+a.a.n ! j 0+< / & & . ; ; ; ;         ",
"        > > $ > B * ~ - H b+>.! ' } t , @ & ; ; ; ; ; ;         ",
"          > c+B * b.b.- 2 e.A Y $.f g+^ # & ; ; ; ; ;           ",
"            * ~ * - H ..e 8.A i 7.j 6 h+, . ; ; ; ;             ",
"              - - - 2 e.z i+R v ) 5.'.k % ; ; ; ;               ",
"                  2 e z 6.2.$.` a _ j+@ ; ; ;                   ",
"                      : 5 C ) a _ = @ ; ;                       ",
"                                                                ",
"                                                                "};
