/* XPM */
static char * location_admin_16_xpm[] = {
"16 16 135 2",
"  	c None",
". 	c #F0F0F0",
"+ 	c #F7F7F7",
"@ 	c #E5E5E5",
"# 	c #7C7B7D",
"$ 	c #9E9E9D",
"% 	c #C4B07E",
"& 	c #F1C251",
"* 	c #F2C351",
"= 	c #E2C951",
"- 	c #B9DC51",
"; 	c #B6DE52",
"> 	c #B2D851",
", 	c #7E7C7F",
"' 	c #E4E4E5",
") 	c #E2E2E2",
"! 	c #9E9E9E",
"~ 	c #AAAAAA",
"{ 	c #C7B68C",
"] 	c #FCCC57",
"^ 	c #FFCD55",
"/ 	c #F1D355",
"( 	c #C4E755",
"_ 	c #C0EA56",
": 	c #D9D9D9",
"< 	c #A2A2A2",
"[ 	c #CE7B62",
"} 	c #E91E0C",
"| 	c #E70E06",
"1 	c #E55622",
"2 	c #C5E053",
"3 	c #D6D6D6",
"4 	c #B09393",
"5 	c #DC0303",
"6 	c #BD0000",
"7 	c #9F0000",
"8 	c #DD0000",
"9 	c #DB5C25",
"0 	c #C7E455",
"a 	c #B8DC51",
"b 	c #D2D2D2",
"c 	c #B7B8BA",
"d 	c #B96F6F",
"e 	c #D20000",
"f 	c #670000",
"g 	c #4C0000",
"h 	c #B60000",
"i 	c #D1260F",
"j 	c #D4B148",
"k 	c #CBE255",
"l 	c #E0CA51",
"m 	c #D3D3D3",
"n 	c #CFCFCF",
"o 	c #C0C2C5",
"p 	c #C4C5C7",
"q 	c #AFAFB0",
"r 	c #D1B2B5",
"s 	c #C70101",
"t 	c #A50000",
"u 	c #8A0000",
"v 	c #C50000",
"w 	c #C94621",
"x 	c #CCA444",
"y 	c #DAAF48",
"z 	c #F9C853",
"A 	c #CBCBCB",
"B 	c #9F9F9F",
"C 	c #C8C9CC",
"D 	c #D6D8DC",
"E 	c #E6E8EC",
"F 	c #CE5A5C",
"G 	c #BB0000",
"H 	c #BC0A0A",
"I 	c #BEAAA8",
"J 	c #C9A756",
"K 	c #D6AC48",
"L 	c #C8C8C8",
"M 	c #CDCFD2",
"N 	c #DFE1E5",
"O 	c #DEE0E4",
"P 	c #E7DCE0",
"Q 	c #B51314",
"R 	c #B00000",
"S 	c #B86F71",
"T 	c #C3B38D",
"U 	c #CBA444",
"V 	c #C6A44F",
"W 	c #C7A042",
"X 	c #C4C4C4",
"Y 	c #BFC1C3",
"Z 	c #E4E6EA",
"` 	c #ECEEF2",
" .	c #E3E5E9",
"..	c #DDDFE3",
"+.	c #CB8486",
"@.	c #A81D1D",
"#.	c #C2B497",
"$.	c #CBA445",
"%.	c #C1A55A",
"&.	c #96ABB5",
"*.	c #AAA17B",
"=.	c #C1C1C1",
"-.	c #D8DADE",
";.	c #EDEFF3",
">.	c #E5E7EB",
",.	c #D7D0D4",
"'.	c #B56852",
").	c #CBA448",
"!.	c #C4A553",
"~.	c #98ABB0",
"{.	c #93ACBD",
"].	c #8DA4B5",
"^.	c #B7B7B7",
"/.	c #DCDEE2",
"(.	c #EAE3D3",
"_.	c #DCAF4E",
":.	c #C7A44D",
"<.	c #9BAAAA",
"[.	c #8AA1B0",
"}.	c #919191",
"|.	c #5B5A5C",
"1.	c #DBDCE0",
"2.	c #DBDDE1",
"3.	c #D9DADE",
"4.	c #D7D3CC",
"5.	c #E0B95F",
"6.	c #DFB654",
"7.	c #9DA7A1",
"8.	c #879DAE",
"9.	c #899FB0",
"0.	c #889FAF",
"a.	c #3B3B3B",
"b.	c #878787",
"c.	c #9B9B9B",
"d.	c #000000",
"                                ",
"    . + + + + + + + + + + .     ",
"  @ # $ % & * = - ; ; ; > , '   ",
"  ) ! ~ ~ { ] ^ / ( _ _ _ > )   ",
"  : < ~ ~ ~ [ } | 1 2 _ _ ; :   ",
"  3 < ~ ~ 4 5 6 7 8 9 0 _ a 3   ",
"  b c ~ ~ d e f g h i j k l m   ",
"  n o p q r s t u v w x y z n   ",
"  A B C D E F G G H I J x K A   ",
"  L B M N O P Q R S T U V W L   ",
"  X Y Z `  ...+.@.#.$.%.&.*.X   ",
"  =.-.;.;.;.>.,.'.).!.~.{.].=.  ",
"  ^./.;.;.;.;.(._.:.<.{.{.[.^.  ",
"  }.|.1.2.3.4.5.6.7.8.9.0.|.}.  ",
"  a.b.c.c.c.c.c.c.c.c.c.c.b.a.  ",
"    d.d.d.d.d.d.d.d.d.d.d.d.    "};
