/* XPM */
static char * location_admin_xpm[] = {
"32 32 316 2",
"  	c None",
". 	c #E1E1E1",
"+ 	c #EDEDED",
"@ 	c #D7D7D7",
"# 	c #E3E3E3",
"$ 	c #E4E4E4",
"% 	c #E7E7E7",
"& 	c #E2E2E2",
"* 	c #B8B8B8",
"= 	c #868687",
"- 	c #808081",
"; 	c #818182",
"> 	c #828283",
", 	c #E0E0E0",
"' 	c #89898A",
") 	c #A0A0A0",
"! 	c #9D9D9D",
"~ 	c #9C9C9C",
"{ 	c #9B9B9C",
"] 	c #A8A08D",
"^ 	c #DEB757",
"/ 	c #E6BA4F",
"( 	c #E5BA4F",
"_ 	c #CBC54F",
": 	c #AED24F",
"< 	c #AED350",
"[ 	c #AFD450",
"} 	c #AFD550",
"| 	c #B0D650",
"1 	c #B1D851",
"2 	c #B5DC52",
"3 	c #DEDEDE",
"4 	c #AAAAAA",
"5 	c #B3AEA0",
"6 	c #F0C763",
"7 	c #FFCD55",
"8 	c #E5D855",
"9 	c #C0E955",
"0 	c #C0EA56",
"a 	c #DCDCDC",
"b 	c #AFACA4",
"c 	c #E9C46A",
"d 	c #FAA946",
"e 	c #F15F27",
"f 	c #EC3C19",
"g 	c #ED421B",
"h 	c #F26D2D",
"i 	c #E7C24D",
"j 	c #C1E955",
"k 	c #B1D750",
"l 	c #DBDBDB",
"m 	c #8C8C8D",
"n 	c #AAA9A9",
"o 	c #CA5250",
"p 	c #E60100",
"q 	c #E60000",
"r 	c #E60903",
"s 	c #E48D37",
"t 	c #C3E855",
"u 	c #DDDDDD",
"v 	c #DADADA",
"w 	c #909091",
"x 	c #C25C5C",
"y 	c #E20000",
"z 	c #E30200",
"A 	c #E3993D",
"B 	c #C4E755",
"C 	c #D8D8D8",
"D 	c #929293",
"E 	c #AC9F9F",
"F 	c #DA0707",
"G 	c #DD0000",
"H 	c #BB0000",
"I 	c #790000",
"J 	c #800000",
"K 	c #CA0000",
"L 	c #DA1F0D",
"M 	c #E1C24E",
"N 	c #C6E655",
"O 	c #D9D9D9",
"P 	c #D6D6D6",
"Q 	c #959596",
"R 	c #B77373",
"S 	c #D70000",
"T 	c #CC0000",
"U 	c #520000",
"V 	c #4C0000",
"W 	c #630000",
"X 	c #CD913C",
"Y 	c #E4C14E",
"Z 	c #C9E555",
"` 	c #B1D34F",
" .	c #D4D4D4",
"..	c #979798",
"+.	c #9B9B9B",
"@.	c #BA6363",
"#.	c #D10000",
"$.	c #B00000",
"%.	c #CB0000",
"&.	c #D20000",
"*.	c #CD8035",
"=.	c #CCA444",
"-.	c #E7C04E",
";.	c #CCE455",
">.	c #D7C24F",
",.	c #D2D2D2",
"'.	c #9B9A9B",
").	c #A8A8A9",
"!.	c #ADADAD",
"~.	c #CC8D8F",
"{.	c #C60000",
"].	c #580000",
"^.	c #6C0000",
"/.	c #CC913C",
"(.	c #E9C04F",
"_.	c #ECD555",
":.	c #E8BB4F",
"<.	c #9A9A9B",
"[.	c #D3D3D3",
"}.	c #D1D1D1",
"|.	c #C2C4C8",
"1.	c #BCBDBF",
"2.	c #ABABAB",
"3.	c #CDCFD2",
"4.	c #D7CFD3",
"5.	c #C70C0D",
"6.	c #B60000",
"7.	c #850000",
"8.	c #8B0000",
"9.	c #BF0000",
"0.	c #C70000",
"a.	c #C8230E",
"b.	c #CBA343",
"c.	c #EDBE4F",
"d.	c #EEC050",
"e.	c #CFCFCF",
"f.	c #A0A0A1",
"g.	c #BFC1C5",
"h.	c #D8DADE",
"i.	c #C1C2C4",
"j.	c #C9CACD",
"k.	c #D9DBDF",
"l.	c #DFE1E5",
"m.	c #D77B7D",
"n.	c #C10000",
"o.	c #C0837C",
"p.	c #C9A95B",
"q.	c #DDB14B",
"r.	c #9E9E9E",
"s.	c #CECECE",
"t.	c #CDCDCD",
"u.	c #A3A2A3",
"v.	c #A0A1A2",
"w.	c #D5D7DA",
"x.	c #DDDFE3",
"y.	c #ECEEF2",
"z.	c #EBE6EA",
"A.	c #C22222",
"B.	c #BC3738",
"C.	c #BEBEC1",
"D.	c #BEBDBA",
"E.	c #BE9940",
"F.	c #CCCCCC",
"G.	c #CBCBCB",
"H.	c #A6A6A7",
"I.	c #989798",
"J.	c #C3C5C7",
"K.	c #EDEFF3",
"L.	c #DEB2B5",
"M.	c #B60101",
"N.	c #B50000",
"O.	c #B60909",
"P.	c #BDA8AA",
"Q.	c #BEBFC2",
"R.	c #C1B8A1",
"S.	c #CBA447",
"T.	c #BC9840",
"U.	c #A4A3A4",
"V.	c #CACACA",
"W.	c #A9A9AA",
"X.	c #A6A6A8",
"Y.	c #DBDDE1",
"Z.	c #DCDEE2",
"`.	c #DEE0E4",
" +	c #EBEDF1",
".+	c #C75C5E",
"++	c #B86B6D",
"@+	c #C0BAAA",
"#+	c #CBA54B",
"$+	c #CBA444",
"%+	c #A7A7A7",
"&+	c #C8C8C8",
"*+	c #ADACAD",
"=+	c #C2C4C7",
"-+	c #DADCE0",
";+	c #EAECF0",
">+	c #E7DCDF",
",+	c #AE0E0E",
"'+	c #AA0000",
")+	c #AE2222",
"!+	c #BDBCBF",
"~+	c #BFBBB2",
"{+	c #CAA650",
"]+	c #AEA882",
"^+	c #ADA885",
"/+	c #BA9740",
"(+	c #C5C5C5",
"_+	c #C6C6C6",
":+	c #ACACAC",
"<+	c #C6C7CC",
"[+	c #E9EBEF",
"}+	c #C9797B",
"|+	c #A50000",
"1+	c #B68587",
"2+	c #BFBCB8",
"3+	c #C9A857",
"4+	c #B4A775",
"5+	c #93ABBC",
"6+	c #93ACBD",
"7+	c #999B86",
"8+	c #ABABAC",
"9+	c #C3C3C3",
"0+	c #C4C4C4",
"a+	c #AFAEB0",
"b+	c #D3D4D8",
"c+	c #E0E2E6",
"d+	c #E3D9DD",
"e+	c #A30909",
"f+	c #A51E1F",
"g+	c #BEBCBC",
"h+	c #C8AA60",
"i+	c #B9A66A",
"j+	c #93ABBB",
"k+	c #879DAD",
"l+	c #AFAEAF",
"m+	c #C1C1C1",
"n+	c #C2C2C2",
"o+	c #B2B2B3",
"p+	c #D7D8DD",
"q+	c #E1E3E7",
"r+	c #B54D4F",
"s+	c #B06666",
"t+	c #C7AC6A",
"u+	c #BEA560",
"v+	c #94ABB8",
"w+	c #B2B1B2",
"x+	c #C0C0C0",
"y+	c #B5B4B5",
"z+	c #E3E5E9",
"A+	c #C59193",
"B+	c #C08F57",
"C+	c #C2A558",
"D+	c #96ABB4",
"E+	c #B4B3B5",
"F+	c #BFBFBF",
"G+	c #B8B7B8",
"H+	c #E5E7EB",
"I+	c #E5C794",
"J+	c #CFA645",
"K+	c #C5A452",
"L+	c #99ABAF",
"M+	c #879EAD",
"N+	c #B7B7B8",
"O+	c #BDBDBD",
"P+	c #BCBCBC",
"Q+	c #BAB9BA",
"R+	c #D8D9DD",
"S+	c #F4E1B5",
"T+	c #FECD55",
"U+	c #F5C551",
"V+	c #CFA745",
"W+	c #C7A44C",
"X+	c #9CAAA9",
"Y+	c #B9B9BA",
"Z+	c #BBBBBB",
"`+	c #BABABA",
" @	c #C3C2C3",
".@	c #D6D8DC",
"+@	c #D4D5DA",
"@@	c #D1D2D7",
"#@	c #D0D1D6",
"$@	c #CECED3",
"%@	c #CCCDD1",
"&@	c #CBCBD1",
"*@	c #CDC1A9",
"=@	c #D6AD52",
"-@	c #D5AC51",
";@	c #D6AD51",
">@	c #CDA852",
",@	c #8E9590",
"'@	c #8295A5",
")@	c #8296A6",
"!@	c #8397A7",
"~@	c #8498A8",
"{@	c #8499A9",
"]@	c #859BAB",
"^@	c #879DAC",
"/@	c #8AA1B1",
"(@	c #C2C2C3",
"_@	c #C5C4C5",
":@	c #C4C3C5",
"<@	c #C0BFC0",
"[@	c #C0C0C1",
"}@	c #C1C0C2",
"|@	c #C2C1C3",
"1@	c #C3C2C4",
"2@	c #C5C3C6",
"3@	c #C4C3C6",
"4@	c #C1C0C1",
"5@	c #BFBFC0",
"6@	c #C4C3C4",
"7@	c #B7B7B7",
"8@	c #424242",
"9@	c #BEBEBE",
"0@	c #C7C7C7",
"a@	c #000000",
"                                                                ",
"                                                                ",
"      . + + + + + + + + + + + + + + + + + + + + + + + + .       ",
"    @ # # # # # # $ $ $ $ $ $ $ $ $ $ $ $ $ $ # # # # # # @     ",
"    % & * = - ; ; > > > > > > > > > > > > > > ; ; - = * & %     ",
"    $ , ' ) ! ~ { ] ^ / / / / ( _ : < < < [ [ } | 1 2 ' , $     ",
"    & 3 = ! 4 4 4 4 5 6 7 7 7 7 7 8 9 0 0 0 0 0 0 0 1 = 3 &     ",
"    , a ' ! 4 4 4 4 4 b c d e f g h i j 0 0 0 0 0 0 k ' a ,     ",
"    3 l m ~ 4 4 4 4 4 n o p q q q q r s t 0 0 0 0 0 | m l 3     ",
"    u v w { 4 4 4 4 4 x y y y y y y y z A B 0 0 0 0 } w v u     ",
"    l C D { 4 4 4 4 E F G G H I J K G G L M N 0 0 0 } D C l     ",
"    O P Q { 4 4 4 4 R S S T U V V W S S S X Y Z 0 0 ` Q P O     ",
"    P  ...+.4 4 4 4 @.#.#.$.V V V V %.&.&.*.=.-.;.j >... .P     ",
"     .,.'.).4 4 4 !.~.T T {.].V V ^.T T T /.=.=.(._.:.<.,. .    ",
"    [.}.! |.1.4 2.3.4.5.{.{.6.7.8.9.{.0.a.b.=.=.=.c.d.<.}.[.    ",
"    }.e.f.g.h.i.j.k.l.m.n.n.n.n.n.n.n.n.o.p.=.=.=.=.q.r.e.}.    ",
"    s.t.u.v.w.k.k.x.y.z.A.H H H H H H B.C.D.p.=.=.=.E.) t.s.    ",
"    F.G.H.I.J.k.k.l.y.K.L.M.N.N.6.6.O.P.Q.R.S.=.=.=.T.U.G.F.    ",
"    V.V.W.X.h.Y.Z.k.`. +K..+$.$.$.$.++Q.@+#+=.=.$+$+T.%+V.V.    ",
"    &+&+*+=+-+;+ +x.k.x. +>+,+'+'+)+!+~+{+=.=.$+]+^+/+4 &+&+    ",
"    (+_+:+<+[+K.K.y.`.k.Y.;+}+|+|+1+2+3+=.=.=.4+5+6+7+8+_+(+    ",
"    9+0+a+b+K.K.K.K.y.c+k.-+d+e+f+g+h+=.=.=.i+j+6+6+k+l+0+9+    ",
"    m+n+o+p+K.K.K.K.K.y.q+k.-+r+s+t+=.=.=.u+v+6+6+6+k+w+n+m+    ",
"    x+m+y+p+K.K.K.K.K.K.y.z+k.A+B+=.=.=.C+D+6+6+6+6+k+E+m+x+    ",
"    F+F+G+p+K.K.K.K.K.K.K.K.H+I+J+=.=.K+L+6+6+6+6+6+M+N+F+F+    ",
"    O+P+Q+R+K.K.K.K.K.K.K.K.S+T+U+V+W+X+6+6+6+6+6+6+k+Y+P+O+    ",
"    Z+`+ @Z..@+@@@#@$@%@&@*@=@-@;@>@,@'@)@!@~@{@]@^@/@(@`+Z+    ",
"    `+* _@:@<@<@[@}@|@1@1@:@:@2@3@:@:@1@1@|@4@[@<@5@6@_@* `+    ",
"    ~ 7@7@7@7@* * * * * * * * * * * * * * * * * * 7@7@7@7@~     ",
"    8@r.Z+P+O+9@F+m+n+9+0+(+0@&+&+0@(+0+9+n+m+F+9@O+P+Z+r.8@    ",
"        a@a@a@a@a@a@a@a@a@a@a@a@a@a@a@a@a@a@a@a@a@a@a@a@        ",
"                                                                "};
