/* XPM */
static char * bammtest_xpm[] = {
"32 32 54 1",
" 	c None",
".	c #EEEEEE",
"+	c #FBFBFB",
"@	c #FAFAFA",
"#	c #E7E7E7",
"$	c #F5F5F5",
"%	c #F4F4F4",
"&	c #FCFCFC",
"*	c #F9F8F7",
"=	c #FBF9F8",
"-	c #FCFAF9",
";	c #F3F3F3",
">	c #F8F7F6",
",	c #5982AA",
"'	c #326598",
")	c #F9F9F9",
"!	c #FAF8F7",
"~	c #004080",
"{	c #F8F8F8",
"]	c #F2F2F2",
"^	c #F9F7F6",
"/	c #F7F7F7",
"(	c #F8F6F5",
"_	c #316497",
":	c #F6F6F6",
"<	c #F1F1F1",
"[	c #F0F0F0",
"}	c #F7F5F4",
"|	c #F6F5F3",
"1	c #EFEFEF",
"2	c #F6F4F3",
"3	c #F5F4F2",
"4	c #F5F3F2",
"5	c #F4F3F1",
"6	c #EDEDED",
"7	c #F4F2F1",
"8	c #ECECEC",
"9	c #F2F0EF",
"0	c #306396",
"a	c #EAEAEA",
"b	c #F1F0EE",
"c	c #F1EFEE",
"d	c #E9E9E9",
"e	c #EFEDEC",
"f	c #EDECEB",
"g	c #557EA6",
"h	c #E7E8E8",
"i	c #EDEBEA",
"j	c #EEEDEB",
"k	c #C6C6C6",
"l	c #E8E8E8",
"m	c #3E3E3E",
"n	c #C7C7C7",
"o	c #000000",
"                                ",
"                                ",
"   .+@@@@@@@@@@@@@@@@@@@@@@+.   ",
"  #$%%$$$$$$$$$$$$$$$$$$$$%%$#  ",
"  &%%*==----------------==*%%&  ",
"  @;>,'''''''''''''''''''',>;@  ",
"  )%!'~~~~~~~~~~~~~~~~~~~~'!%)  ",
"  );!'~~~~~~~~~~~~~~~~~~~~'!;)  ",
"  );!'~~~~~~~~~~~~~~~~~~~~'!;)  ",
"  {]^'~~~~~~~~~~~~~~~~~~~~'^]{  ",
"  {]^'~~~~~~~~~~~~~~~~~~~~'^]{  ",
"  /](_~~~~~~~~~~~~~~~~~~~~_(]/  ",
"  :<(_~~~~~~~~~~~~~~~~~~~~_(<:  ",
"  :<(_~~~~~~~~~~~~~~~~~~~~_(<:  ",
"  $[}_~~~~~~~~~~~~~~~~~~~~_}[$  ",
"  $[|_~~~~~~~~~~~~~~~~~~~~_|[$  ",
"  %12_~~~~~~~~~~~~~~~~~~~~_21%  ",
"  %13_~~~~~~~~~~~~~~~~~~~~_31%  ",
"  ;.4_~~~~~~~~~~~~~~~~~~~~_4.;  ",
"  ].5_~~~~~~~~~~~~~~~~~~~~_5.]  ",
"  <67_~~~~~~~~~~~~~~~~~~~~_76<  ",
"  [890~~~~~~~~~~~~~~~~~~~~098[  ",
"  [890~~~~~~~~~~~~~~~~~~~~098[  ",
"  [ab0~~~~~~~~~~~~~~~~~~~~0ba[  ",
"  [ac0~~~~~~~~~~~~~~~~~~~~0ca[  ",
"  1de0~~~~~~~~~~~~~~~~~~~~0ed1  ",
"  1dfg00000000000000000000gfd1  ",
"  [#hijeeeeeeeeeeeeeeeeeejih#[  ",
"  kd##lllddddddddddddddlll##dk  ",
"  mn$;%%$:::/{{)){{/:::$%%;$nm  ",
"    oooooooooooooooooooooooo    ",
"                                "};
